# xmcd
#
# Track frame offsets:
#	150
#	66663
#	98702
#	120479
#	132576
#	155407
#	190520
#	222387
#	244082
#	267356
#	298412
#
# Disc length: 4419 seconds
#
# Revision: 1
# Processed by: cddbd v1.5.2PL0 Copyright (c) Steve Scherf et al.
# Submitted via: audiograbber 1.83.01
#
DISCID=ae11410b
DTITLE=Grateful Dead - 95-06-25 RFK Stadium, Washington DC
DYEAR=1900
DGENRE=
TTITLE0=Shakedown Street
TTITLE1=Wang Dang Doodle
TTITLE2=Jack-A-Roe
TTITLE3=Mama Tried
TTITLE4=Mexicali Blues
TTITLE5=Loose Lucy
TTITLE6=Picasso Moon
TTITLE7=Box Of Rain
TTITLE8=Rain
TTITLE9=Samson and Delilah
TTITLE10=Ship Of Fools
EXTD=
EXTT0=
EXTT1=
EXTT2=
EXTT3=
EXTT4=
EXTT5=
EXTT6=
EXTT7=
EXTT8=
EXTT9=
EXTT10=
PLAYORDER=
